<svg xmlns="http://www.w3.org/2000/svg" viewBox="0 0 512 512">
  <defs>
    <linearGradient id="bg" x1="0" x2="1" y1="0" y2="1">
      <stop offset="0" stop-color="#0b5f2a"/>
      <stop offset="0.55" stop-color="#16733a"/>
      <stop offset="1" stop-color="#8fcf72"/>
    </linearGradient>
    <radialGradient id="ball" cx="35%" cy="30%" r="70%">
      <stop offset="0" stop-color="#ffffff"/>
      <stop offset="0.78" stop-color="#eef4ee"/>
      <stop offset="1" stop-color="#cbd7cb"/>
    </radialGradient>
    <filter id="shadow" x="-20%" y="-20%" width="140%" height="140%">
      <feDropShadow dx="0" dy="10" stdDeviation="14" flood-color="#063515" flood-opacity="0.35"/>
    </filter>
  </defs>
  <rect width="512" height="512" rx="112" fill="url(#bg)"/>
  <path d="M62 358c90-76 206-97 388-62v150H62z" fill="#dff3dc" opacity="0.95"/>
  <path d="M80 386c96-52 212-64 356-38" fill="none" stroke="#16733a" stroke-width="16" stroke-linecap="round" opacity="0.42"/>
  <circle cx="176" cy="170" r="82" fill="url(#ball)" filter="url(#shadow)"/>
  <g opacity="0.22" fill="#9aaa9a">
    <circle cx="146" cy="145" r="8"/><circle cx="176" cy="135" r="8"/><circle cx="207" cy="148" r="8"/>
    <circle cx="139" cy="178" r="8"/><circle cx="172" cy="170" r="8"/><circle cx="207" cy="181" r="8"/>
    <circle cx="160" cy="207" r="8"/><circle cx="194" cy="210" r="8"/>
  </g>
  <text x="256" y="328" text-anchor="middle" font-family="Arial Black, Arial, sans-serif" font-size="86" font-weight="900" fill="#ffffff" letter-spacing="3">MIYA</text>
  <text x="256" y="385" text-anchor="middle" font-family="Arial, sans-serif" font-size="32" font-weight="800" fill="#f5ffe9" letter-spacing="8">GOLF LOG</text>
  <circle cx="380" cy="128" r="34" fill="#f5d76e" opacity="0.95"/>
</svg>
